<svg height="512pt" viewBox="0 0 512 512" width="512pt" xmlns="http://www.w3.org/2000/svg"><path d="m203.339844 167.054688-27.335938 27.332031 28.285156 28.285156 27.292969-27.289063c7.757813 4.796876 16.335938 8.382813 25.464844 10.523438v38.09375h40v-38.265625c8.855469-2.160156 17.179687-5.683594 24.726563-10.351563l27.289062 27.289063 28.285156-28.285156-27.332031-27.332031c4.695313-7.648438 8.210937-16.082032 10.335937-25.054688h38.695313v-40h-38.789063c-2.152343-8.921875-5.691406-17.304688-10.394531-24.90625l27.484375-27.484375-28.285156-28.28125-27.523438 27.523437c-7.488281-4.59375-15.730468-8.066406-24.492187-10.203124v-38.648438h-40v38.480469c-9.039063 2.117187-17.535156 5.648437-25.230469 10.375l-27.527344-27.527344-28.285156 28.285156 27.484375 27.484375c-4.699219 7.597656-8.238281 15.980469-10.394531 24.902344h-39.144531v40h39.054687c2.125 8.972656 5.640625 17.410156 10.335938 25.054688zm35.707031-71.269532 11.222656-11.222656c7.480469-5.265625 16.585938-8.371094 26.40625-8.371094 24 0 43.75 18.476563 45.8125 41.945313v8.109375c-2.0625 23.472656-21.8125 41.945312-45.8125 41.945312-25.363281 0-46-20.636718-46-46 0-9.820312 3.105469-18.925781 8.371094-26.40625zm-40.132813 244.300782c0 5.296874 2.621094 10.246093 7.007813 13.238281 5.316406 3.621093 9.816406 5.476562 11.539063 5.84375 7.765624 1.136719 96.75 10.648437 155.097656 16.8125l-4.203125 39.777343c-45.453125-4.800781-151.835938-16.089843-158-17.222656-10.867188-2-21.554688-8.476562-26.957031-12.15625-5.148438-3.511718-9.582032-7.804687-13.222657-12.648437l-.183593.1875-95.984376-94.191407c-3.8125-3.746093-8.863281-5.769531-14.195312-5.726562-5.339844.050781-10.34375 2.175781-14.085938 5.988281-3.742187 3.816407-5.773437 8.855469-5.726562 14.199219.050781 5.339844 2.179688 10.34375 5.992188 14.085938l148.4375 145.667968c11.859374 11.648438 27.550781 18.058594 44.171874 18.058594h273.398438v40h-273.398438c-27.167968 0-52.804687-10.480469-72.191406-29.507812l-148.433594-145.667969c-11.441406-11.226563-17.824218-26.234375-17.97265575-42.261719-.15234425-16.023438 5.94921875-31.148438 17.17187475-42.585938 11.226563-11.441406 26.234375-17.824218 42.261719-17.972656 15.988281-.144531 31.148438 5.945313 42.589844 17.171875l63.574218 62.394531c9.46875-17.539062 28.019532-29.480468 49.3125-29.480468l138.351563-.054688c1 0 1.980469.003906 2.96875.015625l-.234375 19.972657.238281-19.972657c48.742188.589844 95.460938 15.894531 135.101563 44.261719l20.660156 14.78125v49.1875l-43.9375-31.4375c-32.953125-23.582031-71.785156-36.304688-112.300781-36.792969-.824219-.011719-1.636719-.019531-2.476563-.015625l-138.363281.054688c-8.832031-.003906-16.007813 7.175781-16.007813 15.996094zm0 0"/></svg>